<svg width="56" height="56" viewBox="0 0 56 56" fill="none" xmlns="http://www.w3.org/2000/svg">
<rect width="56" height="56" rx="8" fill="#A4D0FF"/>
<path d="M29.0333 44H28.0024C27.7392 43.9427 27.4852 43.8641 27.2496 43.7277C26.1551 43.0935 25.0589 42.4623 23.9632 41.8299C21.3121 40.2997 18.6615 38.7694 16.011 37.238C15.7747 37.1015 15.5253 36.984 15.3109 36.8132C14.7989 36.4049 14.4887 35.8683 14.3311 35.2382C14.3127 35.1654 14.3007 35.0908 14.2858 35.0169C14.2858 30.351 14.2858 25.6846 14.2858 21.0187C14.2904 21.001 14.2967 20.9838 14.2995 20.966C14.3471 20.6426 14.4595 20.341 14.6183 20.0572C14.8442 19.653 15.1343 19.3073 15.5414 19.0722C17.1599 18.1377 18.779 17.2026 20.3976 16.268C22.5849 15.0055 24.7716 13.743 26.9589 12.4805C27.2112 12.3349 27.4583 12.1801 27.7444 12.1021C28.0488 12.019 28.3584 11.988 28.6721 12.0041C29.0614 12.0242 29.434 12.1102 29.7757 12.3074C31.6695 13.4013 33.5632 14.4947 35.4576 15.588C37.4012 16.7101 39.3431 17.835 41.2902 18.9507C41.6886 19.1789 42.0338 19.4547 42.2855 19.8417C42.5653 20.2705 42.7533 20.7286 42.7533 21.2509C42.7533 25.7631 42.7533 30.2753 42.7533 34.7875C42.7533 34.85 42.7574 34.9137 42.7482 34.975C42.6152 35.8494 42.2087 36.5529 41.4312 37.0024C37.6907 39.1667 33.9468 41.3248 30.2046 43.4863C29.8325 43.7013 29.4679 43.9306 29.0327 44H29.0333ZM19.0348 28.0192C19.0325 28.4057 19.0571 28.7904 19.1053 29.1728C19.2715 30.5007 19.693 31.7414 20.3873 32.8881C21.1389 34.1282 22.117 35.1516 23.3297 35.9468C24.6363 36.804 26.0691 37.3057 27.6257 37.4542C28.3412 37.5224 29.0556 37.5103 29.7671 37.4146C30.8766 37.265 31.9286 36.9313 32.9194 36.4084C34.4972 35.5747 35.7471 34.3931 36.6679 32.8634C36.7258 32.7671 36.7252 32.7665 36.6289 32.7109C35.3223 31.9547 34.015 31.199 32.709 30.441C32.6511 30.4072 32.6241 30.4107 32.5874 30.4703C31.5909 32.1009 29.7734 32.9855 27.886 32.7224C26.3391 32.5068 25.1666 31.7012 24.3858 30.3476C23.8829 29.4761 23.6897 28.5301 23.7975 27.5285C23.9328 26.2751 24.4804 25.2294 25.4373 24.4141C26.4601 23.542 27.655 23.1567 28.9937 23.3012C30.5434 23.4686 31.7337 24.2358 32.5725 25.5487C32.6316 25.6416 32.6298 25.6427 32.7262 25.5871C34.0288 24.8338 35.3309 24.0804 36.6335 23.3264C36.7269 23.2725 36.7281 23.2697 36.6736 23.1785C36.2178 22.4165 35.6686 21.7303 35.0201 21.1219C34.2908 20.4374 33.4761 19.8795 32.5714 19.4535C31.06 18.7414 29.4719 18.4439 27.8052 18.566C27.0799 18.6193 26.3701 18.7523 25.6781 18.9731C23.8136 19.5676 22.2696 20.6329 21.0621 22.1706C19.7159 23.8849 19.0525 25.8434 19.0348 28.0215V28.0192ZM40.9009 29.0673C40.9009 28.9291 40.9009 28.7915 40.9009 28.6534C40.9009 28.5375 40.9037 28.5347 41.0184 28.5341C41.2942 28.5335 41.5705 28.5341 41.8463 28.5341C41.9415 28.5341 41.9501 28.5255 41.9501 28.4315C41.9501 28.1557 41.9501 27.8793 41.9501 27.6036C41.9501 27.5101 41.9421 27.5027 41.8457 27.5021C41.5671 27.5015 41.2885 27.5021 41.0098 27.5015C40.9055 27.5015 40.9009 27.4958 40.9003 27.3897C40.9003 27.1059 40.8986 26.8221 40.9014 26.5383C40.902 26.4678 40.8797 26.4414 40.8068 26.4426C40.5259 26.4454 40.2444 26.4437 39.9635 26.4437C39.8671 26.4437 39.8614 26.4494 39.8608 26.5458C39.8608 26.8244 39.8608 27.103 39.8608 27.3817C39.8608 27.4946 39.8539 27.5015 39.7416 27.5015C39.4629 27.5021 39.1843 27.5015 38.9056 27.5015C38.8093 27.5015 38.8019 27.509 38.8019 27.603C38.8019 27.8788 38.8019 28.1551 38.8019 28.4309C38.8019 28.5255 38.8093 28.533 38.9045 28.5335C39.1854 28.5341 39.4669 28.5335 39.7479 28.5341C39.8517 28.5341 39.8597 28.5427 39.8603 28.6453C39.8608 28.9291 39.862 29.2129 39.8597 29.4967C39.8591 29.5673 39.8838 29.5931 39.9554 29.5925C40.2415 29.5896 40.5282 29.5902 40.8143 29.5925C40.8791 29.5925 40.902 29.5684 40.9009 29.5048C40.898 29.3591 40.9003 29.2129 40.9003 29.0673H40.9009ZM35.9082 29.0633C35.9082 29.2066 35.9111 29.35 35.9071 29.4927C35.9053 29.5667 35.9317 29.5936 36.0068 29.5931C36.2826 29.5896 36.5584 29.5919 36.8347 29.5919C36.9322 29.5919 36.9402 29.5839 36.9408 29.4836C36.9414 29.2181 36.9408 28.9526 36.9408 28.6872C36.9408 28.5855 36.9905 28.5347 37.0899 28.5347C37.3582 28.5347 37.6259 28.5347 37.8943 28.5347C37.9894 28.5347 37.9975 28.5261 37.9975 28.432C37.9975 28.1563 37.9975 27.8805 37.9975 27.6041C37.9975 27.5101 37.99 27.5027 37.8937 27.5027C37.6202 27.5021 37.3473 27.5027 37.0738 27.5027C36.9448 27.5027 36.9414 27.4998 36.9414 27.3731C36.9414 27.0996 36.9414 26.8267 36.9414 26.5532C36.9414 26.4529 36.9333 26.4454 36.8359 26.4448C36.5624 26.4448 36.2895 26.4448 36.016 26.4448C35.9157 26.4448 35.9099 26.4506 35.9094 26.5509C35.9094 26.8296 35.9094 27.1082 35.9094 27.3863C35.9094 27.4941 35.9019 27.5021 35.7941 27.5021C35.5155 27.5027 35.2374 27.5021 34.9588 27.5021C34.8573 27.5021 34.8515 27.5084 34.851 27.6076C34.851 27.8782 34.851 28.1488 34.851 28.4194C34.851 28.5284 34.8561 28.5335 34.9656 28.5341C35.2466 28.5341 35.5281 28.5358 35.809 28.5341C35.8818 28.5341 35.9122 28.5593 35.9105 28.6344C35.9071 28.7778 35.9094 28.9205 35.9094 29.0639L35.9082 29.0633Z" fill="#004482" fill-opacity="0.8"/>
</svg>
