<svg width="56" height="56" viewBox="0 0 56 56" fill="none" xmlns="http://www.w3.org/2000/svg">
<rect width="56" height="56" rx="8" fill="#FFCE8B"/>
<path d="M26.5756 44C25.9672 43.899 25.3504 43.9391 24.7378 43.8894C23.5611 43.7912 22.3898 43.6764 21.2448 43.375C20.989 43.3072 20.7304 43.2353 20.5258 43.0362C21.1646 43.1067 21.8035 43.1786 22.4424 43.2477C23.9275 43.4081 25.4182 43.4358 26.9117 43.4413C30.0935 43.4524 33.2491 43.2145 36.355 42.4844C37.3105 42.2604 38.2564 41.9894 39.1137 41.4888C39.3281 41.3643 39.523 41.2053 39.783 41.0228C39.7415 41.3381 39.6198 41.5607 39.4456 41.7626C39.0294 42.2438 38.4749 42.5162 37.9024 42.7472C36.7117 43.227 35.4603 43.4565 34.1964 43.6294C32.862 43.8119 31.5234 43.9336 30.1751 43.953C30.0839 43.953 29.9926 43.9834 29.8999 44H26.577H26.5756Z" fill="#933C23" fill-opacity="0.8"/>
<path d="M27.9598 29.4305C27.072 28.6935 26.2492 27.897 25.4845 27.041C24.9065 26.3911 24.3852 25.7024 24.0381 24.8949C23.5762 23.8232 23.6744 22.8275 24.3796 21.8844C25.1595 20.8418 26.1704 20.0494 27.1785 19.2529C28.1949 18.4495 29.2237 17.6627 30.0589 16.6587C31.1223 15.381 31.5634 13.936 31.2177 12.2821C31.1984 12.1936 31.1693 12.0996 31.2122 12C31.356 12.0041 31.3892 12.1328 31.4459 12.2199C32.1207 13.2528 32.2037 14.3688 31.8704 15.5262C31.5247 16.7307 30.8029 17.7111 29.9732 18.6251C29.1407 19.5419 28.1423 20.2721 27.2255 21.0935C26.7249 21.5429 26.2948 22.0532 25.9519 22.6312C25.2536 23.8038 25.3352 24.9764 25.9547 26.1505C26.4387 27.0687 27.1093 27.8652 27.6473 28.7488C27.7759 28.9618 27.9058 29.1733 27.9612 29.4292L27.9598 29.4305Z" fill="#933C23" fill-opacity="0.8"/>
<path d="M21.2324 39.2154C20.422 39.2859 19.7043 39.4477 19.0185 39.7395C18.8152 39.8252 18.6161 39.9165 18.4391 40.0479C18.1431 40.265 18.1528 40.4738 18.4847 40.6314C18.988 40.872 19.5301 40.9951 20.0749 41.0933C21.3402 41.3201 22.618 41.4266 23.9026 41.4971C25.5012 41.5842 27.0997 41.5842 28.6955 41.5317C31.251 41.4473 33.8064 41.3021 36.3135 40.7282C36.7021 40.6397 37.0823 40.5263 37.4363 40.3397C37.9189 40.0852 37.9978 39.8944 37.8595 39.3827C38.4458 39.5763 38.5495 40.0078 38.1015 40.4199C37.6673 40.8195 37.1197 41.0103 36.5762 41.1956C35.1561 41.681 33.6847 41.9271 32.2023 42.1263C29.7105 42.4609 27.2048 42.4955 24.6991 42.4305C22.2557 42.3669 19.8247 42.1235 17.4172 41.6879C17.1185 41.634 16.8267 41.5524 16.557 41.4072C16.0744 41.1458 16.026 40.7559 16.4436 40.3811C16.8377 40.0271 17.3093 39.7976 17.7988 39.6095C18.7212 39.2555 19.6601 38.9803 20.664 39.0315C20.8397 39.0398 21.018 39.037 21.2351 39.2154H21.2324Z" fill="#933C23" fill-opacity="0.8"/>
<path d="M29.1961 30.4912C29.2929 30.3709 29.3911 30.2506 29.4865 30.1289C30.1917 29.2342 30.2042 28.2385 29.5058 27.3439C29.0301 26.734 28.5544 26.1297 28.2737 25.3927C27.7745 24.079 28.0456 22.9133 28.9154 21.854C29.7022 20.8971 30.7296 20.2583 31.8165 19.7107C32.7776 19.2253 33.7815 18.8409 34.8187 18.5422C34.8975 18.52 34.9763 18.5021 35.0911 18.473C35.0316 18.6224 34.9168 18.6542 34.827 18.7081C33.6446 19.4175 32.472 20.1421 31.4169 21.0382C30.9938 21.3977 30.6024 21.7863 30.2885 22.2481C29.7782 22.999 29.7713 23.7692 30.2014 24.5533C30.4531 25.0124 30.7656 25.4314 31.0657 25.8587C31.9106 27.059 31.8857 27.9869 30.9675 29.1346C30.4932 29.7279 29.8916 30.169 29.1975 30.4912H29.1961Z" fill="#933C23" fill-opacity="0.8"/>
<path d="M23.6979 36.7291C23.3536 37.173 23.3992 37.3362 23.8776 37.4897C24.3284 37.6349 24.8014 37.657 25.266 37.7082C27.1466 37.9114 29.0148 37.8077 30.8665 37.4288C31.1361 37.3735 31.3684 37.3846 31.6076 37.5395C31.9672 37.7745 32.3668 37.9308 32.7595 38.1036C32.8328 38.1355 32.9476 38.1424 32.9531 38.2378C32.9587 38.3429 32.8411 38.3429 32.7692 38.3719C31.551 38.8642 30.2843 39.167 28.9789 39.2929C27.3389 39.4519 25.7057 39.4132 24.0989 38.9928C23.6121 38.8656 23.142 38.6913 22.7119 38.4258C22.0468 38.0138 22.0634 37.4634 22.7493 37.0886C23.0314 36.9352 23.3231 36.7996 23.6965 36.7263L23.6979 36.7291Z" fill="#933C23" fill-opacity="0.8"/>
<path d="M24.2469 29.6075C23.5886 29.7873 22.9567 29.9643 22.3372 30.1814C21.9804 30.3072 21.6375 30.4566 21.3139 30.6502C21.1977 30.7193 21.0733 30.8023 21.0843 30.9599C21.0954 31.1245 21.242 31.1729 21.3664 31.2185C21.9334 31.419 22.5294 31.4577 23.1212 31.5061C24.6548 31.6306 26.1897 31.5656 27.7219 31.4965C29.9427 31.3969 32.1525 31.1563 34.347 30.7912C34.4383 30.776 34.5282 30.7359 34.6983 30.8203C34.1161 31.054 33.6722 31.4481 33.108 31.5933C31.8012 31.9307 30.4668 32.098 29.1241 32.2238C27.3969 32.387 25.6656 32.4395 23.933 32.3898C22.6718 32.3538 21.4107 32.2708 20.1675 32.0261C19.8287 31.9597 19.4955 31.8698 19.1774 31.7329C18.9866 31.65 18.7695 31.5684 18.7446 31.325C18.7183 31.0761 18.9244 30.9599 19.1014 30.8548C19.5881 30.5631 20.1191 30.3708 20.6487 30.18C21.7564 29.7804 22.9055 29.5785 24.0795 29.5218C24.1293 29.519 24.1832 29.5093 24.2469 29.6075Z" fill="#933C23" fill-opacity="0.8"/>
<path d="M22.8697 33.2416C22.8697 33.3771 22.7784 33.4283 22.7286 33.503C22.5032 33.8514 22.5682 34.0755 22.9526 34.2428C23.3052 34.3963 23.6855 34.4059 24.0561 34.4461C26.4996 34.7046 28.9334 34.6258 31.345 34.1584C31.9216 34.0464 32.4347 33.9966 32.8993 34.4516C33.0625 34.612 33.31 34.6853 33.523 34.8001C33.469 34.948 33.3321 34.9245 33.2326 34.9522C31.6976 35.3712 30.1378 35.6408 28.5503 35.7431C26.7333 35.8607 24.9232 35.869 23.131 35.4818C22.6097 35.3684 22.0939 35.2301 21.6431 34.9273C21.1425 34.5912 21.1384 34.1875 21.6279 33.8265C21.9985 33.5527 22.4133 33.373 22.8655 33.2416H22.8697Z" fill="#933C23" fill-opacity="0.8"/>
<path d="M35.3967 29.8468C35.7452 29.4361 36.1462 29.3517 36.5458 29.2895C37.4129 29.154 38.2301 29.2729 38.9464 29.8302C39.754 30.4594 40.0167 31.5103 39.595 32.4451C39.2949 33.1116 38.8109 33.6219 38.2232 34.0409C37.222 34.753 36.0992 35.19 34.9251 35.515C34.8878 35.5247 34.8463 35.515 34.7827 35.515C34.8228 35.3158 34.9874 35.2799 35.1132 35.2108C35.9955 34.7254 36.8334 34.1792 37.5249 33.438C37.9881 32.9415 38.3629 32.3856 38.4126 31.6832C38.4956 30.5257 37.4861 29.5619 36.3315 29.685C36.0452 29.7154 35.7631 29.7804 35.3967 29.844V29.8468Z" fill="#933C23" fill-opacity="0.8"/>
</svg>
