<svg width="58" height="58" viewBox="0 0 58 58" fill="none" xmlns="http://www.w3.org/2000/svg">
<rect width="58" height="58" rx="8" fill="#FFAF8C"/>
<path d="M22.4872 19.2955C22.4872 18.1313 23.431 17.1875 24.5952 17.1875C25.7594 17.1875 26.7031 18.1313 26.7031 19.2955V32.392C26.7031 34.0587 26.3092 35.5246 25.5213 36.7898C24.741 38.0549 23.6425 39.0436 22.2259 39.7557C20.8092 40.4602 19.1539 40.8125 17.26 40.8125C15.3584 40.8125 13.6993 40.4602 12.2827 39.7557C10.866 39.0436 9.76753 38.0549 8.98723 36.7898C8.20692 35.5246 7.81677 34.0587 7.81677 32.392V19.2955C7.81677 18.1313 8.76054 17.1875 9.92473 17.1875C11.0889 17.1875 12.0327 18.1313 12.0327 19.2955V32.0398C12.0327 33.0095 12.2448 33.8731 12.669 34.6307C13.1009 35.3883 13.7069 35.983 14.4872 36.4148C15.2675 36.839 16.1918 37.0511 17.26 37.0511C18.3281 37.0511 19.2524 36.839 20.0327 36.4148C20.8206 35.983 21.4266 35.3883 21.8509 34.6307C22.2751 33.8731 22.4872 33.0095 22.4872 32.0398V19.2955Z" fill="#F16529"/>
<path d="M33.655 17.1875C34.3706 17.1875 35.0338 17.5626 35.4026 18.1759L39.8863 25.6322C39.9155 25.6806 39.9678 25.7102 40.0243 25.7102C40.0806 25.7102 40.1329 25.6807 40.162 25.6325L44.6674 18.1733C45.0369 17.5614 45.6997 17.1875 46.4145 17.1875C48.0118 17.1875 48.99 18.9394 48.1521 20.2993L43.8766 27.2376C43.278 28.209 43.2823 29.436 43.8878 30.4032L48.2046 37.2993C49.0656 38.6748 48.0768 40.4602 46.4541 40.4602C45.7352 40.4602 45.068 40.0864 44.6927 39.4732L40.1625 32.0719C40.133 32.0237 40.0806 31.9943 40.0242 31.9943C39.9677 31.9943 39.9153 32.0237 39.8858 32.0719L35.3505 39.4815C34.9783 40.0895 34.3168 40.4602 33.6039 40.4602C31.991 40.4602 31.0112 38.6822 31.8728 37.3186L36.2339 30.4164C36.8491 29.4427 36.8525 28.2028 36.2428 27.2257L31.9249 20.3063C31.0773 18.948 32.0539 17.1875 33.655 17.1875Z" fill="#F16529"/>
</svg>
